<svg width="56" height="57" viewBox="0 0 56 57" fill="none" xmlns="http://www.w3.org/2000/svg">
<rect y="0.5" width="56" height="56" rx="28" fill="#EDF4FF"/>
<path d="M23.94 32.34H18.38L17.46 35H14.52L19.54 21.02H22.8L27.82 35H24.86L23.94 32.34ZM23.18 30.1L21.16 24.26L19.14 30.1H23.18ZM34.5164 35.14C33.5431 35.14 32.6631 34.9733 31.8764 34.64C31.1031 34.3067 30.4897 33.8267 30.0364 33.2C29.5831 32.5733 29.3497 31.8333 29.3364 30.98H32.3364C32.3764 31.5533 32.5764 32.0067 32.9364 32.34C33.3097 32.6733 33.8164 32.84 34.4564 32.84C35.1097 32.84 35.6231 32.6867 35.9964 32.38C36.3697 32.06 36.5564 31.6467 36.5564 31.14C36.5564 30.7267 36.4297 30.3867 36.1764 30.12C35.9231 29.8533 35.6031 29.6467 35.2164 29.5C34.8431 29.34 34.3231 29.1667 33.6564 28.98C32.7497 28.7133 32.0097 28.4533 31.4364 28.2C30.8764 27.9333 30.3897 27.54 29.9764 27.02C29.5764 26.4867 29.3764 25.78 29.3764 24.9C29.3764 24.0733 29.5831 23.3533 29.9964 22.74C30.4097 22.1267 30.9897 21.66 31.7364 21.34C32.4831 21.0067 33.3364 20.84 34.2964 20.84C35.7364 20.84 36.9031 21.1933 37.7964 21.9C38.7031 22.5933 39.2031 23.5667 39.2964 24.82H36.2164C36.1897 24.34 35.9831 23.9467 35.5964 23.64C35.2231 23.32 34.7231 23.16 34.0964 23.16C33.5497 23.16 33.1097 23.3 32.7764 23.58C32.4564 23.86 32.2964 24.2667 32.2964 24.8C32.2964 25.1733 32.4164 25.4867 32.6564 25.74C32.9097 25.98 33.2164 26.18 33.5764 26.34C33.9497 26.4867 34.4697 26.66 35.1364 26.86C36.0431 27.1267 36.7831 27.3933 37.3564 27.66C37.9297 27.9267 38.4231 28.3267 38.8364 28.86C39.2497 29.3933 39.4564 30.0933 39.4564 30.96C39.4564 31.7067 39.2631 32.4 38.8764 33.04C38.4897 33.68 37.9231 34.1933 37.1764 34.58C36.4297 34.9533 35.5431 35.14 34.5164 35.14Z" fill="#D0E1FF"/>
</svg>
